<svg height="140" viewBox="0 0 740 1009" fill="none" xmlns="http://www.w3.org/2000/svg">
<path d="M288.109 973V864.37H296.065V973H288.109ZM378.825 936.28C378.825 942.298 378.009 947.704 376.377 952.498C374.745 957.19 372.45 961.168 369.492 964.432C366.636 967.594 363.27 970.042 359.394 971.776C355.518 973.408 351.285 974.224 346.695 974.224C342.207 974.224 337.974 973.459 333.996 971.929C330.12 970.297 326.754 967.951 323.898 964.891C321.042 961.831 318.798 958.057 317.166 953.569C315.534 948.979 314.718 943.726 314.718 937.81C314.718 931.792 315.534 926.437 317.166 921.745C318.9 917.053 321.246 913.126 324.204 909.964C327.162 906.7 330.63 904.252 334.608 902.62C338.586 900.988 342.819 900.172 347.307 900.172C351.795 900.172 355.977 900.937 359.853 902.467C363.729 903.997 367.044 906.292 369.798 909.352C372.654 912.412 374.847 916.186 376.377 920.674C378.009 925.162 378.825 930.364 378.825 936.28ZM370.563 937.045C370.563 931.741 369.9 927.202 368.574 923.428C367.248 919.552 365.463 916.39 363.219 913.942C361.077 911.392 358.578 909.556 355.722 908.434C352.866 907.21 349.908 906.598 346.848 906.598C343.788 906.598 340.83 907.21 337.974 908.434C335.118 909.556 332.568 911.392 330.324 913.942C328.08 916.39 326.295 919.552 324.969 923.428C323.643 927.202 322.98 931.741 322.98 937.045C322.98 942.655 323.643 947.398 324.969 951.274C326.397 955.15 328.233 958.312 330.477 960.76C332.721 963.208 335.271 964.993 338.127 966.115C341.085 967.237 344.094 967.798 347.154 967.798C350.214 967.798 353.121 967.288 355.875 966.268C358.731 965.146 361.23 963.361 363.372 960.913C365.616 958.465 367.35 955.303 368.574 951.427C369.9 947.449 370.563 942.655 370.563 937.045ZM393.196 924.958C393.196 920.98 393.859 917.461 395.185 914.401C396.613 911.239 398.602 908.638 401.152 906.598C403.702 904.456 406.711 902.875 410.179 901.855C413.749 900.733 417.625 900.172 421.807 900.172C423.643 900.172 425.224 900.274 426.55 900.478C427.978 900.682 429.355 900.886 430.681 901.09H460.516V907.21H451.642L438.331 906.292C441.493 908.026 444.043 910.576 445.981 913.942C447.919 917.308 448.888 920.929 448.888 924.805C448.888 928.783 448.174 932.353 446.746 935.515C445.42 938.575 443.482 941.176 440.932 943.318C438.484 945.46 435.577 947.092 432.211 948.214C428.845 949.234 425.173 949.744 421.195 949.744C419.767 949.744 418.339 949.693 416.911 949.591C415.585 949.489 414.157 949.285 412.627 948.979C410.179 949.897 408.19 951.325 406.66 953.263C405.13 955.099 404.365 957.037 404.365 959.077C404.365 961.729 405.334 963.667 407.272 964.891C409.312 966.013 411.862 966.574 414.922 966.574H433.588C441.544 966.574 447.562 968.257 451.642 971.623C455.722 974.989 457.762 979.324 457.762 984.628C457.762 988.198 456.946 991.411 455.314 994.267C453.682 997.225 451.336 999.724 448.276 1001.76C445.216 1003.8 441.493 1005.39 437.107 1006.51C432.721 1007.63 427.774 1008.19 422.266 1008.19C412.27 1008.19 404.314 1006.2 398.398 1002.22C392.482 998.347 389.524 992.992 389.524 986.158C389.524 982.384 390.595 979.171 392.737 976.519C394.981 973.969 398.143 971.98 402.223 970.552C400.693 969.736 399.316 968.41 398.092 966.574C396.97 964.636 396.409 962.443 396.409 959.995C396.409 956.629 397.378 953.875 399.316 951.733C401.254 949.489 403.498 947.755 406.048 946.531C404.416 945.817 402.835 944.797 401.305 943.471C399.775 942.145 398.398 940.564 397.174 938.728C395.95 936.892 394.981 934.852 394.267 932.608C393.553 930.262 393.196 927.712 393.196 924.958ZM408.037 973C405.079 974.02 402.631 975.601 400.693 977.743C398.857 979.885 397.939 982.384 397.939 985.24C397.939 990.748 400.183 994.879 404.671 997.633C409.261 1000.39 415.177 1001.76 422.419 1001.76C427.213 1001.76 431.293 1001.25 434.659 1000.23C438.127 999.316 440.932 998.041 443.074 996.409C445.318 994.879 446.95 993.094 447.97 991.054C448.99 989.116 449.5 987.127 449.5 985.087C449.5 982.639 448.99 980.599 447.97 978.967C447.052 977.437 445.675 976.213 443.839 975.295C442.105 974.479 440.014 973.867 437.566 973.459C435.22 973.153 432.619 973 429.763 973H408.037ZM440.626 925.264C440.626 919.246 438.892 914.656 435.424 911.494C431.956 908.23 427.417 906.598 421.807 906.598C418.951 906.598 416.299 907.006 413.851 907.822C411.403 908.536 409.261 909.658 407.425 911.188C405.589 912.616 404.11 914.452 402.988 916.696C401.968 918.94 401.458 921.592 401.458 924.652C401.458 930.976 403.345 935.668 407.119 938.728C410.893 941.788 415.585 943.318 421.195 943.318C426.805 943.318 431.446 941.839 435.118 938.881C438.79 935.923 440.626 931.384 440.626 925.264Z" fill="#777"/>
<path d="M0 370C0 70 173 0 370 0C567 0 740 70 740 370C740 670 567 740 370 740C173 740 0 670 0 370Z" fill="#FAFA00"/>
<path d="M413.6 545.2C412.2 538.2 411.267 532.367 410.8 527.7C410.8 522.567 410.567 516.733 410.1 510.2C394.233 526.067 377.2 537.733 359 545.2C341.267 552.667 322.833 556.4 303.7 556.4C271.967 556.4 247.467 547.767 230.2 530.5C213.4 513.233 205 492 205 466.8C205 444.4 211.067 425.5 223.2 410.1C235.333 394.233 251.2 381.4 270.8 371.6C290.4 361.333 312.1 353.633 335.9 348.5C359.7 342.9 383.267 339.867 406.6 339.4V300.9C406.6 287.367 404.967 275 401.7 263.8C398.9 252.133 393.533 243.033 385.6 236.5C377.667 229.5 366 226 350.6 226C340.333 226.467 329.833 228.8 319.1 233C308.833 236.733 300.667 242.8 294.6 251.2C298.333 255.4 300.667 260.067 301.6 265.2C302.533 269.867 303 274.067 303 277.8C303 286.2 299.733 295.067 293.2 304.4C286.667 313.267 276.167 317.467 261.7 317C249.1 316.533 239.3 312.1 232.3 303.7C225.767 295.3 222.5 285.267 222.5 273.6C222.5 255.867 228.8 240.467 241.4 227.4C254.467 213.867 271.967 203.367 293.9 195.9C315.833 187.967 340.333 184 367.4 184C407.533 184 438.333 194.5 459.8 215.5C481.267 236.5 491.767 270.1 491.3 316.3C491.3 332.633 491.3 347.567 491.3 361.1C491.3 374.167 491.067 387.467 490.6 401C490.6 414.067 490.6 428.767 490.6 445.1C490.6 452.1 490.367 460.967 489.9 471.7C489.433 481.967 488.733 492.233 487.8 502.5C496.2 501.567 504.6 501.1 513 501.1C521.867 500.633 529.1 500.167 534.7 499.7V545.2H413.6ZM405.9 380.7C391.9 381.633 378.133 383.967 364.6 387.7C351.067 390.967 338.933 395.633 328.2 401.7C317.467 407.767 308.833 415.467 302.3 424.8C296.233 433.667 293.433 443.933 293.9 455.6C294.367 470.067 299.033 480.8 307.9 487.8C316.767 494.333 327.033 497.6 338.7 497.6C352.233 497.6 364.367 494.8 375.1 489.2C386.3 483.6 396.567 476.133 405.9 466.8C405.9 462.133 405.9 457.233 405.9 452.1C405.9 446.967 405.9 441.833 405.9 436.7C405.9 430.167 405.9 422 405.9 412.2C405.9 402.4 405.9 391.9 405.9 380.7Z" fill="white"/>
</svg>
